<svg width="12" height="10" viewBox="0 0 12 10" fill="none" xmlns="http://www.w3.org/2000/svg">
<path d="M10.7583 4.40833L6.59167 0.241662C6.51242 0.165795 6.41897 0.106324 6.31667 0.0666617C6.11379 -0.0166867 5.88623 -0.0166867 5.68334 0.0666617C5.58105 0.106324 5.48759 0.165795 5.40834 0.241662L1.24167 4.40833C1.16397 4.48603 1.10234 4.57827 1.06029 4.67979C1.01824 4.78131 0.996597 4.89011 0.996597 5C0.996597 5.22191 1.08475 5.43474 1.24167 5.59166C1.39859 5.74858 1.61142 5.83674 1.83334 5.83674C2.05526 5.83674 2.26809 5.74858 2.42501 5.59166L5.16667 2.84166V9.16666C5.16667 9.38768 5.25447 9.59964 5.41075 9.75592C5.56703 9.9122 5.77899 10 6.00001 10C6.22102 10 6.43298 9.9122 6.58926 9.75592C6.74554 9.59964 6.83334 9.38768 6.83334 9.16666V2.84166L9.57501 5.59166C9.65248 5.66977 9.74464 5.73176 9.84619 5.77407C9.94774 5.81638 10.0567 5.83816 10.1667 5.83816C10.2767 5.83816 10.3856 5.81638 10.4872 5.77407C10.5887 5.73176 10.6809 5.66977 10.7583 5.59166C10.8364 5.51419 10.8984 5.42203 10.9408 5.32048C10.9831 5.21893 11.0048 5.11001 11.0048 5C11.0048 4.88999 10.9831 4.78106 10.9408 4.67951C10.8984 4.57797 10.8364 4.4858 10.7583 4.40833Z" fill="#16C784"/>
</svg>
