<svg width="12" height="10" viewBox="0 0 12 10" fill="none" xmlns="http://www.w3.org/2000/svg">
<path d="M10.7583 5.59167L6.59167 9.75834C6.51242 9.83421 6.41897 9.89368 6.31667 9.93334C6.11379 10.0167 5.88623 10.0167 5.68334 9.93334C5.58105 9.89368 5.48759 9.83421 5.40834 9.75834L1.24167 5.59167C1.16397 5.51397 1.10234 5.42173 1.06029 5.32021C1.01824 5.21869 0.996597 5.10989 0.996597 5C0.996597 4.77809 1.08475 4.56526 1.24167 4.40834C1.39859 4.25142 1.61142 4.16326 1.83334 4.16326C2.05526 4.16326 2.26809 4.25142 2.42501 4.40834L5.16667 7.15834V0.833338C5.16667 0.612325 5.25447 0.400362 5.41075 0.244081C5.56703 0.0878019 5.77899 4.76837e-06 6.00001 4.76837e-06C6.22102 4.76837e-06 6.43298 0.0878019 6.58926 0.244081C6.74554 0.400362 6.83334 0.612325 6.83334 0.833338V7.15834L9.57501 4.40834C9.65248 4.33023 9.74464 4.26824 9.84619 4.22593C9.94774 4.18362 10.0567 4.16184 10.1667 4.16184C10.2767 4.16184 10.3856 4.18362 10.4872 4.22593C10.5887 4.26824 10.6809 4.33023 10.7583 4.40834C10.8364 4.48581 10.8984 4.57797 10.9408 4.67952C10.9831 4.78107 11.0048 4.88999 11.0048 5C11.0048 5.11001 10.9831 5.21894 10.9408 5.32049C10.8984 5.42203 10.8364 5.5142 10.7583 5.59167Z" fill="#FF5252"/>
</svg>
