<svg width="308" height="247" viewBox="0 0 308 247" fill="none" xmlns="http://www.w3.org/2000/svg">
<g opacity="0.15">
<path d="M303.891 130.477C303.891 100.998 288 74.2708 262.232 54.8971C236.464 35.5232 200.843 23.5255 161.476 23.5255C122.109 23.5255 86.4884 35.5232 60.7204 54.8971C34.9526 74.2708 19.061 100.998 19.061 130.477C19.061 159.957 34.9526 186.684 60.7204 206.058C86.4884 225.432 122.109 237.429 161.476 237.429C200.843 237.429 236.464 225.432 262.232 206.058C288 186.684 303.891 159.957 303.891 130.477Z" stroke="#333333"/>
<path d="M303.891 114.429C303.891 83.0227 286.96 54.5516 259.513 33.9152C232.066 13.2787 194.125 0.5 152.195 0.5C110.266 0.5 72.3248 13.2787 44.8775 33.9152C17.4303 54.5516 0.5 83.0227 0.5 114.429C0.5 145.836 17.4303 174.307 44.8775 194.943C72.3248 215.58 110.266 228.359 152.195 228.359C194.125 228.359 232.066 215.58 259.513 194.943C286.96 174.307 303.891 145.836 303.891 114.429Z" stroke="#333333"/>
<path d="M306.676 144.083C306.676 115.856 291.459 90.263 266.783 71.71C242.107 53.1569 207.994 41.6668 170.293 41.6668C132.592 41.6668 98.4786 53.1569 73.8023 71.71C49.1261 90.263 33.9097 115.856 33.9097 144.083C33.9097 172.311 49.1261 197.904 73.8023 216.457C98.4786 235.01 132.592 246.5 170.293 246.5C207.994 246.5 242.107 235.01 266.783 216.457C291.459 197.904 306.676 172.311 306.676 144.083Z" stroke="#333333"/>
</g>
</svg>
