<svg width="30" height="30" viewBox="0 0 30 30" fill="none" xmlns="http://www.w3.org/2000/svg">
<path fill-rule="evenodd" clip-rule="evenodd" d="M11.2132 9.60004C10.9607 9.60004 10.6665 9.83584 10.6665 10.2267C10.6665 10.5627 10.7375 10.6513 10.7447 10.6604C10.7448 10.6605 10.7446 10.6603 10.7447 10.6604C10.7601 10.6799 10.8183 10.7425 11.0654 10.8302L14.2733 11.9529C14.6588 12.0924 15.1285 12.3178 15.4827 12.7708C15.8464 13.2362 15.9865 13.808 15.9865 14.44C15.9865 15.8358 14.894 17.0667 13.4398 17.0667H11.4398C9.86722 17.0667 8.6665 15.7308 8.6665 14.2C8.6665 13.6477 9.11422 13.2 9.6665 13.2C10.2188 13.2 10.6665 13.6477 10.6665 14.2C10.6665 14.7226 11.0658 15.0667 11.4398 15.0667H13.4398C13.6924 15.0667 13.9865 14.8309 13.9865 14.44C13.9865 14.1035 13.9152 14.013 13.9073 14.0029C13.8915 13.9828 13.8349 13.9217 13.5975 13.8354L10.3993 12.716C10.0078 12.5773 9.53259 12.3531 9.17467 11.8993C8.8065 11.4325 8.6665 10.8585 8.6665 10.2267C8.6665 8.8309 9.75902 7.60004 11.2132 7.60004H13.2267C14.7853 7.6211 15.9998 8.91837 15.9998 10.4667C15.9998 11.019 15.5521 11.4667 14.9998 11.4667C14.4476 11.4667 13.9998 11.019 13.9998 10.4667C13.9998 9.96387 13.6177 9.6086 13.205 9.60004H11.2132Z" fill="#035C96"/>
<path fill-rule="evenodd" clip-rule="evenodd" d="M12.333 15.1334C12.8853 15.1334 13.333 15.5811 13.333 16.1334V17.12C13.333 17.6723 12.8853 18.12 12.333 18.12C11.7807 18.12 11.333 17.6723 11.333 17.12V16.1334C11.333 15.5811 11.7807 15.1334 12.333 15.1334Z" fill="#035C96"/>
<path fill-rule="evenodd" clip-rule="evenodd" d="M12.333 6.54669C12.8853 6.54669 13.333 6.99441 13.333 7.54669V8.58669C13.333 9.13898 12.8853 9.58669 12.333 9.58669C11.7807 9.58669 11.333 9.13898 11.333 8.58669V7.54669C11.333 6.99441 11.7807 6.54669 12.333 6.54669Z" fill="#035C96"/>
<path fill-rule="evenodd" clip-rule="evenodd" d="M12.3198 2.66669C6.98845 2.66669 2.6665 6.98863 2.6665 12.32C2.6665 17.6514 6.98845 21.9734 12.3198 21.9734C17.6512 21.9734 21.9732 17.6514 21.9732 12.32C21.9732 6.98863 17.6512 2.66669 12.3198 2.66669ZM0.666504 12.32C0.666504 5.88406 5.88388 0.666687 12.3198 0.666687C18.7558 0.666687 23.9732 5.88406 23.9732 12.32C23.9732 18.756 18.7558 23.9734 12.3198 23.9734C5.88388 23.9734 0.666504 18.756 0.666504 12.32Z" fill="#035C96"/>
<path fill-rule="evenodd" clip-rule="evenodd" d="M24.7352 15.749C25.0579 15.3008 25.6828 15.1991 26.131 15.5218C28.0459 16.9005 29.3067 19.1563 29.3067 21.7067C29.3067 25.8989 25.899 29.3067 21.7067 29.3067C19.1264 29.3067 16.8688 28.0293 15.4908 26.0848C15.1715 25.6342 15.2779 25.0101 15.7285 24.6908C16.1791 24.3714 16.8033 24.4779 17.1226 24.9285C18.1446 26.3706 19.8071 27.3067 21.7067 27.3067C24.7944 27.3067 27.3067 24.7944 27.3067 21.7067C27.3067 19.8304 26.3809 18.1661 24.9624 17.1449C24.5142 16.8222 24.4125 16.1972 24.7352 15.749Z" fill="#035C96"/>
</svg>
